<?xml version="1.0" standalone="no"?>
<!DOCTYPE svg PUBLIC "-//W3C//DTD SVG 20010904//EN"
 "http://www.w3.org/TR/2001/REC-SVG-20010904/DTD/svg10.dtd">
<svg version="1.0" xmlns="http://www.w3.org/2000/svg"
 width="570.000000pt" height="555.000000pt" viewBox="0 0 570.000000 555.000000"
 preserveAspectRatio="xMidYMid meet">

<g transform="translate(0.000000,555.000000) scale(0.100000,-0.100000)"
fill="#000000" stroke="none">
<path d="M2049 5369 c-26 -4 -56 -12 -67 -18 -15 -8 -29 -7 -56 4 -45 19 -146
19 -191 1 -99 -42 -158 -129 -161 -239 -2 -59 -7 -72 -34 -105 -31 -38 -60
-115 -60 -162 0 -51 30 -126 67 -169 34 -40 119 -91 151 -91 8 0 33 -19 56
-43 62 -64 125 -91 221 -95 112 -5 175 20 260 101 35 34 83 76 107 92 116 82
133 265 35 381 -21 25 -25 38 -21 66 9 53 -21 142 -62 188 -68 75 -146 104
-245 89z m-150 -199 c55 -37 75 -37 130 0 48 32 70 36 104 18 49 -26 58 -64
31 -133 -20 -53 -8 -86 45 -119 44 -28 61 -53 61 -89 0 -34 -35 -74 -70 -82
-17 -4 -38 -18 -48 -32 -39 -59 -88 -101 -125 -108 -78 -15 -126 11 -195 104
-20 26 -30 31 -67 31 -62 0 -105 37 -105 90 0 31 6 43 31 62 75 57 81 66 75
111 -19 126 -19 125 8 151 33 34 70 33 125 -4z"/>
<path d="M2708 5200 l-26 -80 41 -21 c86 -43 142 -117 154 -204 l6 -45 89 0
90 0 -7 53 c-21 153 -118 289 -251 352 -29 14 -57 25 -61 25 -5 0 -21 -36 -35
-80z"/>
<path d="M4272 5093 c-57 -20 -126 -91 -146 -150 -9 -25 -16 -70 -16 -100 0
-45 -5 -60 -35 -98 -19 -25 -40 -65 -46 -88 -35 -131 49 -283 176 -319 23 -6
60 -30 85 -54 104 -99 252 -127 374 -71 36 17 82 50 117 85 31 31 75 69 97 84
90 60 128 199 82 305 -12 28 -33 61 -46 74 -21 19 -24 32 -24 90 0 150 -110
259 -262 259 -26 0 -65 -7 -86 -15 -34 -14 -42 -14 -81 0 -54 19 -133 18 -189
-2z m170 -188 c34 -29 89 -33 109 -9 41 50 113 53 150 6 22 -29 22 -62 -2
-119 -18 -45 -3 -82 45 -110 48 -26 70 -64 61 -103 -7 -34 -28 -53 -77 -73
-23 -10 -47 -31 -63 -57 -34 -53 -78 -80 -135 -80 -51 0 -98 25 -126 65 -43
63 -61 75 -109 75 -61 0 -95 32 -95 89 0 32 5 44 31 63 72 55 81 67 76 106 -2
20 -10 51 -17 68 -11 25 -11 35 1 59 28 59 94 68 151 20z"/>
<path d="M3834 4904 c-132 -63 -228 -199 -249 -351 l-7 -53 90 0 89 0 6 45
c12 87 68 161 154 204 l41 21 -26 80 c-14 44 -31 80 -37 80 -5 -1 -33 -12 -61
-26z"/>
<path d="M2860 4574 c-126 -27 -238 -99 -314 -203 l-35 -48 -78 -1 c-143 -2
-275 -62 -376 -170 -48 -53 -112 -170 -123 -227 -5 -31 -8 -32 -79 -43 -99
-15 -173 -45 -244 -97 -100 -74 -175 -187 -201 -301 -14 -61 -14 -197 0 -244
14 -48 13 -50 -14 -50 -14 0 -38 -12 -55 -26 l-31 -26 0 -213 0 -213 31 -26
c17 -14 36 -26 44 -26 18 0 14 43 106 -1295 61 -894 84 -1185 95 -1202 8 -12
32 -27 53 -33 27 -7 444 -9 1316 -8 l1277 3 24 28 c13 15 24 40 24 55 0 15 3
37 6 50 9 31 36 21 95 -33 73 -68 120 -88 220 -93 78 -4 92 -2 148 23 41 19
78 45 110 80 26 29 61 59 77 68 37 19 86 72 110 117 27 51 26 172 -3 225 -11
22 -30 49 -42 59 -17 15 -21 31 -21 75 0 114 -46 195 -139 243 -62 32 -157 38
-216 14 -31 -13 -39 -13 -70 0 -40 16 -141 19 -181 4 -15 -6 -29 -9 -31 -7 -2
3 21 364 52 804 30 440 55 805 55 812 0 7 22 11 59 11 49 0 65 4 90 26 l31 26
0 213 0 213 -31 26 c-26 23 -40 26 -101 26 -57 0 -69 3 -65 14 17 44 28 148
22 205 -27 254 -220 447 -477 476 -55 7 -56 8 -63 44 -21 112 -142 270 -252
329 -67 35 -153 62 -199 62 -27 0 -38 8 -73 55 -79 105 -187 172 -318 200 -83
18 -128 18 -213 -1z m252 -192 c61 -27 138 -99 167 -156 30 -61 54 -76 121
-76 193 0 336 -134 357 -334 4 -38 13 -67 27 -83 21 -24 28 -25 131 -27 98 -1
116 -4 166 -29 67 -32 142 -109 172 -175 29 -64 31 -207 3 -270 l-19 -42 -66
0 -66 0 -13 52 c-16 68 -70 149 -124 186 -54 36 -120 62 -158 62 l-30 0 0 -84
0 -83 45 -18 c43 -16 84 -57 98 -97 6 -17 -25 -18 -562 -18 l-569 0 -11 43
c-20 80 20 165 93 198 56 25 104 24 160 -6 53 -28 53 -28 124 36 l51 46 -32
30 c-126 120 -351 112 -477 -18 -22 -23 -52 -66 -67 -97 -24 -49 -28 -69 -28
-144 l0 -88 -273 0 -273 0 -24 25 c-45 44 -29 116 31 141 l34 14 0 80 c0 43
-4 81 -8 84 -18 11 -84 -8 -135 -38 -89 -54 -144 -178 -119 -270 l10 -36 -118
0 -118 0 -19 48 c-12 32 -18 73 -18 127 0 103 35 183 107 251 77 72 123 88
252 90 139 2 151 12 166 126 11 93 42 157 101 216 83 82 204 118 318 93 70
-15 101 1 136 71 44 89 120 155 208 184 61 20 190 13 249 -14z m1348 -1457 l0
-85 -1490 0 -1490 0 0 85 0 85 1490 0 1490 0 0 -85z m-2536 -327 c6 -65 77
-2153 76 -2245 l0 -53 -129 0 -129 0 -6 62 c-8 83 -156 2238 -156 2272 l0 26
169 0 169 0 6 -62z m606 -177 l0 -239 -66 -64 c-135 -128 -189 -247 -189 -418
0 -83 5 -119 23 -172 31 -90 85 -171 165 -245 l67 -62 0 -461 0 -460 -174 0
-174 0 -6 133 c-7 139 -76 2139 -76 2195 l0 32 215 0 215 0 0 -239z m700 43
c0 -183 -1 -196 -17 -189 -114 45 -372 45 -485 0 -17 -7 -18 6 -18 189 l0 196
260 0 260 0 0 -196z m610 154 c0 -24 -11 -356 -25 -738 -14 -382 -25 -725 -25
-761 l0 -65 -49 -23 c-99 -44 -173 -166 -157 -259 4 -28 0 -41 -21 -66 -44
-52 -63 -105 -63 -177 0 -79 33 -153 88 -199 l37 -30 -108 0 -107 0 0 460 0
461 67 62 c80 74 134 155 165 245 18 53 23 89 23 172 0 83 -5 119 -23 172 -31
90 -85 171 -165 245 l-67 62 0 241 0 240 215 0 215 0 0 -42z m414 -275 c-12
-175 -37 -537 -55 -805 l-33 -488 -58 0 c-32 0 -75 -7 -95 -15 -20 -9 -40 -12
-45 -7 -7 7 36 1434 48 1570 l6 62 127 0 127 0 -22 -317z m-1167 -218 c161
-30 306 -133 369 -261 26 -54 29 -68 29 -164 0 -96 -3 -110 -29 -164 -66 -135
-212 -234 -390 -264 -89 -15 -103 -15 -192 0 -178 30 -324 129 -390 264 -40
80 -46 211 -15 294 55 147 217 269 394 299 80 13 138 12 224 -4z m-277 -1021
c113 -24 311 -14 403 21 16 7 17 -17 17 -409 l0 -416 -260 0 -260 0 0 416 c0
392 1 416 18 409 9 -4 46 -13 82 -21z m1101 -254 c55 -37 75 -37 130 0 24 16
57 30 72 30 40 0 74 -38 82 -92 6 -41 3 -50 -28 -94 -60 -86 -72 -160 -40
-261 17 -53 17 -53 -8 -79 -49 -53 -126 -68 -187 -36 -18 10 -50 40 -70 68
-35 46 -42 49 -92 56 -63 7 -100 40 -100 87 0 31 34 81 54 81 16 0 52 39 60
67 4 12 0 38 -9 58 -26 64 -17 106 30 133 32 18 59 14 106 -18z m614 0 c21
-17 50 -30 65 -30 15 0 44 13 65 30 44 35 82 38 118 10 34 -27 43 -70 23 -109
-32 -61 -17 -110 43 -141 42 -21 51 -36 51 -81 0 -46 -15 -66 -65 -84 -34 -14
-51 -28 -71 -62 -18 -31 -39 -51 -67 -64 -91 -41 -159 -14 -227 90 -12 18 -29
26 -74 32 -64 8 -92 27 -101 69 -9 39 15 81 58 104 47 24 65 67 47 110 -26 64
-25 93 8 126 40 39 77 39 127 0z"/>
<path d="M3210 4014 c-8 -4 -30 -13 -48 -20 l-32 -13 32 -58 c58 -102 51 -95
84 -83 98 38 227 -67 212 -172 -3 -19 6 -24 67 -40 113 -29 108 -32 103 66 -5
102 -37 174 -104 236 -65 60 -123 83 -219 87 -44 1 -87 0 -95 -3z"/>
<path d="M2413 3939 c-108 -41 -196 -154 -210 -267 l-6 -52 86 0 86 0 11 43
c19 71 89 127 157 127 15 0 47 -9 71 -20 l43 -20 54 58 c30 31 54 62 55 67 0
14 -63 54 -112 71 -59 20 -172 17 -235 -7z"/>
<path d="M614 4452 c-89 -31 -144 -89 -171 -181 -9 -31 -13 -69 -9 -91 5 -30
2 -41 -18 -59 -38 -36 -68 -115 -67 -181 0 -99 46 -178 130 -223 27 -15 56
-27 64 -27 9 0 44 -25 77 -55 83 -73 150 -98 251 -93 94 6 154 33 229 105 30
30 75 68 100 86 53 39 96 112 105 179 9 62 -16 147 -57 194 -28 31 -31 42 -29
87 4 100 -44 187 -132 237 -69 39 -137 47 -207 23 -52 -17 -57 -17 -105 -1
-64 22 -97 22 -161 0z m143 -186 c49 -41 78 -43 128 -7 51 36 91 40 129 10 21
-16 26 -29 26 -64 0 -24 -4 -47 -10 -50 -13 -8 -13 -71 0 -96 6 -10 25 -26 43
-35 42 -22 56 -42 57 -80 0 -40 -32 -81 -70 -89 -17 -4 -38 -18 -48 -33 -82
-123 -192 -144 -276 -52 -20 22 -36 44 -36 50 0 15 -39 32 -83 36 -51 5 -85
27 -93 61 -10 40 7 73 55 108 56 39 70 75 47 122 -23 49 -20 90 9 118 32 33
84 33 122 1z"/>
<path d="M1400 4342 c-11 -37 -23 -74 -26 -83 -3 -11 6 -21 28 -30 56 -23 125
-96 148 -155 11 -30 20 -66 20 -79 0 -25 1 -25 86 -25 l87 0 -5 64 c-13 152
-124 295 -280 360 l-37 16 -21 -68z"/>
<path d="M4550 1623 c-13 -37 -25 -73 -27 -79 -2 -7 16 -22 41 -34 82 -39 156
-150 156 -232 0 -16 10 -18 86 -18 l87 0 -5 63 c-7 79 -51 176 -112 243 -45
51 -131 108 -177 119 -26 6 -28 3 -49 -62z"/>
</g>
</svg>
